<?xml version="1.0" standalone="no"?>
<!DOCTYPE svg PUBLIC "-//W3C//DTD SVG 20010904//EN"
 "http://www.w3.org/TR/2001/REC-SVG-20010904/DTD/svg10.dtd">
<svg version="1.0" xmlns="http://www.w3.org/2000/svg"
 width="512.000000pt" height="512.000000pt" viewBox="0 0 512.000000 512.000000"
 preserveAspectRatio="xMidYMid meet">
<metadata>
Created by potrace 1.14, written by Peter Selinger 2001-2017
</metadata>
<g transform="translate(0.000000,512.000000) scale(0.100000,-0.100000)"
fill="#000000" stroke="none">
<path d="M2442 4654 c-24 -8 -77 -35 -119 -60 -41 -24 -77 -44 -79 -44 -3 0
-17 -8 -32 -19 -22 -15 -305 -179 -483 -280 -331 -188 -897 -521 -915 -540
-32 -32 -33 -89 -1 -123 20 -22 117 -83 247 -155 19 -11 134 -78 255 -148 121
-70 236 -137 255 -148 19 -10 206 -118 415 -240 209 -121 403 -231 432 -243
97 -43 231 -35 326 20 97 55 487 281 547 316 132 78 758 438 816 470 32 18 66
38 74 44 8 6 31 20 50 30 83 45 114 100 86 153 -18 35 -47 56 -211 148 -22 13
-123 71 -225 130 -102 59 -205 119 -230 133 -25 14 -73 43 -108 64 -34 21 -64
38 -66 38 -2 0 -81 46 -177 101 -96 56 -190 111 -209 122 -19 10 -113 64 -208
119 -95 55 -193 106 -219 114 -60 18 -166 17 -221 -2z m273 -129 c153 -53 208
-171 120 -259 -133 -134 -467 -122 -564 20 -41 59 -35 112 17 167 81 86 288
120 427 72z m-1231 -690 c99 -20 199 -100 204 -164 5 -70 -41 -126 -143 -172
-42 -19 -68 -23 -165 -23 -130 -1 -177 10 -246 57 -80 54 -103 120 -65 183 62
102 244 153 415 119z m2385 -6 c140 -33 221 -123 191 -214 -41 -125 -301 -189
-483 -118 -86 33 -147 98 -147 156 0 132 231 225 439 176z m-1217 -698 c164
-28 259 -130 213 -232 -36 -78 -147 -130 -288 -134 -162 -4 -285 50 -323 142
-58 139 163 263 398 224z"/>
<path d="M704 3366 c-45 -32 -45 -28 -42 -916 l3 -845 33 -67 c23 -46 51 -83
90 -118 31 -27 59 -50 63 -50 6 0 266 -148 456 -261 46 -27 85 -49 87 -49 2 0
48 -26 103 -58 54 -32 118 -70 143 -84 25 -14 61 -34 80 -45 19 -12 159 -92
310 -180 152 -88 285 -163 295 -167 64 -25 117 -7 135 48 12 38 17 1649 4
1702 -11 51 -55 133 -93 173 -38 42 -51 50 -421 263 -280 161 -521 301 -879
508 -278 161 -322 178 -367 146z m279 -225 c129 -59 247 -245 247 -387 0 -171
-152 -206 -295 -67 -114 110 -175 277 -144 390 21 75 106 103 192 64z m6 -611
c112 -51 228 -226 238 -360 16 -204 -149 -243 -312 -73 -44 46 -106 153 -120
208 -12 48 -14 135 -3 166 26 74 109 99 197 59z m1130 -43 c61 -30 143 -124
187 -212 60 -122 56 -257 -9 -300 -62 -40 -149 -19 -231 56 -176 161 -221 429
-81 476 38 13 79 7 134 -20z m-1127 -578 c127 -65 228 -224 234 -368 4 -109
-31 -163 -107 -167 -146 -7 -325 203 -334 391 -7 147 81 208 207 144z m1127
-32 c104 -52 216 -223 227 -347 22 -245 -210 -249 -367 -7 -107 165 -99 354
16 379 32 7 77 -2 124 -25z m-13 -612 c128 -64 229 -217 241 -366 16 -195
-147 -233 -306 -71 -177 181 -184 459 -10 462 14 0 47 -11 75 -25z"/>
<path d="M4320 3373 c-8 -4 -109 -61 -225 -128 -115 -67 -230 -133 -255 -147
-25 -14 -99 -57 -165 -95 -66 -39 -140 -81 -165 -95 -68 -38 -603 -347 -620
-358 -8 -5 -32 -19 -53 -30 -54 -30 -121 -103 -154 -169 l-28 -56 -3 -840 c-2
-584 0 -851 8 -877 16 -55 69 -78 125 -56 23 9 602 339 770 439 17 10 64 37
105 61 124 70 141 80 283 163 75 44 149 87 164 95 218 120 274 166 321 268
l27 57 3 845 c3 887 3 884 -42 915 -20 15 -68 19 -96 8z m-31 -238 c98 -83 46
-305 -107 -451 -52 -51 -100 -75 -159 -82 -80 -9 -126 43 -129 146 -5 136 90
300 220 381 66 41 130 43 175 6z m-1123 -642 c13 -8 31 -34 40 -59 77 -201
-214 -565 -373 -465 -60 38 -76 116 -48 226 56 214 263 376 381 298z m575
-300 c35 -40 45 -104 30 -181 -46 -232 -290 -422 -400 -312 -103 103 2 385
185 495 46 28 64 33 106 31 43 -2 55 -7 79 -33z m545 -280 c34 -22 57 -92 51
-155 -21 -220 -244 -439 -377 -371 -49 25 -70 72 -65 147 4 81 9 100 45 173
84 170 250 269 346 206z m-1129 -643 c42 -25 56 -54 59 -122 3 -70 -8 -114
-46 -193 -118 -242 -378 -310 -398 -104 -8 89 34 208 106 299 50 62 79 86 136
115 60 30 100 32 143 5z"/>
</g>
</svg>
